<svg width="68" height="68" viewBox="0 0 68 68" fill="none" xmlns="http://www.w3.org/2000/svg">
<path d="M33.9796 0.666657C27.7432 0.65811 21.6295 2.39925 16.3334 5.69217C11.0372 8.9851 6.77103 13.6977 4.01975 19.2944C1.26847 24.8911 0.142418 31.1474 0.769594 37.3522C1.39677 43.557 3.75202 49.4614 7.56763 54.3943C11.3832 59.3272 16.5062 63.0908 22.3542 65.2573C28.2022 67.4238 34.5406 67.9062 40.6492 66.6499C46.7577 65.3935 52.3913 62.4487 56.9096 58.1501C61.4279 53.8516 64.6497 48.3717 66.2088 42.3333H57.538C56.01 46.655 53.3233 50.4734 49.7716 53.3711C46.2199 56.2687 41.9398 58.1341 37.3994 58.7633C32.859 59.3925 28.233 58.7613 24.0271 56.9387C19.8213 55.1161 16.1975 52.1722 13.5519 48.4289C10.9063 44.6856 9.34082 40.287 9.02656 35.714C8.71229 31.141 9.66136 26.5696 11.77 22.4995C13.8786 18.4295 17.0656 15.0176 20.9826 12.6368C24.8996 10.2559 29.3958 8.99781 33.9796 8.99999C37.2583 9.00478 40.5031 9.66315 43.5243 10.9366C46.5456 12.2101 49.2826 14.0731 51.5755 16.4167L38.1671 29.8333H67.3338V0.666657L57.538 10.4583C54.4512 7.35283 50.7805 4.88884 46.7373 3.20832C42.694 1.52781 38.3582 0.663997 33.9796 0.666657V0.666657Z" fill="white"/>
</svg>
