<svg width="1038" height="515" viewBox="0 0 1038 515" fill="none" xmlns="http://www.w3.org/2000/svg">
<g filter="url(#filter0_d_215_15)">
<g filter="url(#filter1_d_215_15)">
<path d="M629.336 226.069C621.328 225.969 613.405 227.729 606.192 231.209C598.979 234.689 592.671 239.796 587.766 246.127V184.253C587.766 182.081 586.903 179.998 585.367 178.462C583.831 176.926 581.748 176.063 579.576 176.063H551.182C549.01 176.063 546.927 176.926 545.391 178.462C543.855 179.998 542.992 182.081 542.992 184.253V361.786C542.992 362.862 543.204 363.927 543.616 364.92C544.027 365.914 544.631 366.817 545.391 367.577C546.152 368.338 547.054 368.941 548.048 369.352C549.042 369.764 550.107 369.976 551.182 369.975H579.576C580.652 369.976 581.717 369.764 582.71 369.352C583.704 368.941 584.607 368.338 585.367 367.577C586.128 366.817 586.731 365.914 587.143 364.92C587.554 363.927 587.766 362.862 587.766 361.786V353.698C599.394 367.071 613.64 373.467 629.339 373.467C663.939 373.467 691.261 347.303 691.261 299.624C691.258 253.687 664.221 226.069 629.336 226.069ZM614.508 333.926C604.915 333.926 593.287 328.984 587.763 321.426V278.399C593.291 270.841 604.915 265.608 614.508 265.608C632.242 265.608 645.615 278.69 645.615 299.621C645.615 320.844 632.242 333.926 614.508 333.926ZM770.88 274.894C767.439 274.894 764.075 275.915 761.213 277.827C758.352 279.739 756.122 282.456 754.805 285.636C753.488 288.815 753.143 292.314 753.815 295.689C754.486 299.064 756.143 302.165 758.577 304.598C761.01 307.032 764.11 308.689 767.486 309.36C770.861 310.031 774.359 309.687 777.539 308.37C780.718 307.053 783.436 304.823 785.348 301.961C787.26 299.1 788.28 295.736 788.28 292.294C788.28 287.68 786.447 283.254 783.184 279.991C779.921 276.728 775.495 274.894 770.88 274.894ZM816.948 184.935V140.274C819.788 139.091 822.13 136.961 823.576 134.245C825.022 131.53 825.483 128.397 824.879 125.38C824.276 122.363 822.646 119.649 820.267 117.698C817.888 115.748 814.906 114.682 811.83 114.682C808.753 114.682 805.772 115.748 803.393 117.698C801.013 119.649 799.383 122.363 798.78 125.38C798.177 128.397 798.637 131.53 800.083 134.245C801.529 136.961 803.871 139.091 806.711 140.274V184.935C778.678 186.272 752.28 198.519 733.156 219.06C714.033 239.601 703.702 266.807 704.37 294.863C705.039 322.92 716.654 349.603 736.733 369.21C756.813 388.817 783.765 399.793 811.83 399.793C839.894 399.793 866.846 388.817 886.926 369.21C907.006 349.603 918.621 322.92 919.289 294.863C919.958 266.807 909.626 239.601 890.503 219.06C871.38 198.519 844.981 186.272 816.948 184.935ZM902.941 292.302C902.941 322.833 862.149 347.583 811.829 347.583C761.509 347.583 720.718 322.833 720.718 292.302C720.718 261.771 761.51 237.021 811.829 237.021C862.148 237.021 902.941 261.767 902.941 292.297V292.302ZM852.778 309.702C856.22 309.702 859.584 308.682 862.445 306.77C865.307 304.858 867.537 302.141 868.854 298.961C870.171 295.782 870.515 292.283 869.844 288.908C869.172 285.533 867.515 282.432 865.082 279.999C862.648 277.565 859.548 275.908 856.173 275.237C852.797 274.565 849.299 274.91 846.12 276.227C842.94 277.544 840.223 279.774 838.311 282.635C836.399 285.497 835.378 288.861 835.378 292.302C835.378 296.917 837.212 301.343 840.475 304.605C843.738 307.868 848.164 309.701 852.778 309.701V309.702ZM1027.76 339.477C1027.23 337.464 1025.94 335.731 1024.18 334.628C1022.41 333.526 1020.29 333.136 1018.24 333.539C1016.87 333.793 1015.48 333.923 1014.09 333.926C1006.24 333.926 1001.59 327.82 1001.59 319.681V268.515H1021.94C1024.1 268.515 1026.17 267.657 1027.69 266.13C1029.22 264.603 1030.08 262.532 1030.08 260.372V237.701C1030.08 235.542 1029.22 233.471 1027.69 231.944C1026.17 230.417 1024.1 229.559 1021.94 229.558H1001.59V199.326C1001.59 197.167 1000.73 195.096 999.201 193.568C997.674 192.041 995.603 191.183 993.443 191.183H965.249C963.09 191.183 961.018 192.041 959.491 193.568C957.964 195.096 957.106 197.167 957.106 199.326V229.558H941.992C940.923 229.558 939.864 229.769 938.876 230.178C937.888 230.588 936.99 231.187 936.234 231.943C935.478 232.7 934.878 233.597 934.469 234.585C934.06 235.573 933.849 236.632 933.849 237.701V260.372C933.849 261.442 934.06 262.501 934.469 263.489C934.878 264.477 935.478 265.374 936.234 266.13C936.99 266.887 937.888 267.486 938.876 267.896C939.864 268.305 940.923 268.515 941.992 268.515H957.107V332.182C957.107 359.219 972.515 373.464 1001.01 373.464C1013.19 373.464 1022.39 371.264 1028.61 368.018C1030.25 367.168 1031.55 365.788 1032.3 364.103C1033.05 362.418 1033.21 360.528 1032.75 358.74L1027.76 339.477Z" fill="#6749B9"/>
</g>
<g filter="url(#filter2_d_215_15)">
<path d="M12.0137 374.033V168.955H118.654V188.583H31.9355V262.119H91.1152V281.748H31.9355V354.404H118.654V374.033H12.0137ZM132.717 168.955H152.932L206.838 353.818L199.807 374.033H192.189L132.717 168.955ZM203.029 296.982L246.389 168.955H266.311C265.334 172.275 257.912 194.736 244.045 236.337C225.49 291.806 215.627 321.689 214.455 325.986H211.525L203.029 296.982ZM278.322 374.033L317.58 200.009H322.561L329.592 232.529L297.951 374.033H278.322ZM319.631 338.583L323.732 319.248H362.697L329.592 169.248H349.514L395.217 374.033H375.295L367.678 338.583H319.631ZM408.986 333.017L427.443 329.794C427.443 339.169 432.424 346.787 442.385 352.646C447.658 355.576 452.834 357.041 457.912 357.041V375.498C439.943 375.498 426.271 368.955 416.896 355.869C411.623 348.642 408.986 341.025 408.986 333.017ZM410.451 262.998C410.451 245.029 418.459 231.943 434.475 223.74C442.092 219.833 449.709 217.88 457.326 217.88V236.044C448.146 236.044 440.529 239.853 434.475 247.47C430.764 252.353 428.908 257.529 428.908 262.998C428.908 269.833 433.791 275.107 443.557 278.818C449.611 281.162 464.846 285.263 489.26 291.123C504.299 294.638 514.26 301.962 519.143 313.095C521.096 317.587 522.072 322.373 522.072 327.451C522.072 345.419 514.65 358.896 499.807 367.88C491.018 372.958 481.154 375.498 470.217 375.498V357.333C479.787 357.333 488.088 353.818 495.119 346.787C500.393 341.513 503.029 335.263 503.029 328.037C503.029 319.443 495.021 312.705 479.006 307.822C474.514 306.455 467.189 304.599 457.033 302.255C448.83 300.302 442.775 298.837 438.869 297.861C424.025 292.587 415.041 284.677 411.916 274.13C410.939 270.615 410.451 266.904 410.451 262.998ZM469.924 236.337V217.88C486.525 217.88 499.904 224.13 510.061 236.63C516.311 244.443 519.436 252.548 519.436 260.947L500.979 263.876C500.979 252.744 494.826 244.541 482.521 239.267C477.834 237.314 473.635 236.337 469.924 236.337Z" fill="#6749B9"/>
</g>
</g>
<defs>
<filter id="filter0_d_215_15" x="8.01367" y="110.682" width="1029" height="293.111" filterUnits="userSpaceOnUse" color-interpolation-filters="sRGB">
<feFlood flood-opacity="0" result="BackgroundImageFix"/>
<feColorMatrix in="SourceAlpha" type="matrix" values="0 0 0 0 0 0 0 0 0 0 0 0 0 0 0 0 0 0 127 0" result="hardAlpha"/>
<feOffset/>
<feGaussianBlur stdDeviation="2"/>
<feComposite in2="hardAlpha" operator="out"/>
<feColorMatrix type="matrix" values="0 0 0 0 0 0 0 0 0 0 0 0 0 0 0 0 0 0 0.25 0"/>
<feBlend mode="normal" in2="BackgroundImageFix" result="effect1_dropShadow_215_15"/>
<feBlend mode="normal" in="SourceGraphic" in2="effect1_dropShadow_215_15" result="shape"/>
</filter>
<filter id="filter1_d_215_15" x="538.992" y="114.682" width="498.018" height="293.111" filterUnits="userSpaceOnUse" color-interpolation-filters="sRGB">
<feFlood flood-opacity="0" result="BackgroundImageFix"/>
<feColorMatrix in="SourceAlpha" type="matrix" values="0 0 0 0 0 0 0 0 0 0 0 0 0 0 0 0 0 0 127 0" result="hardAlpha"/>
<feOffset dy="4"/>
<feGaussianBlur stdDeviation="2"/>
<feComposite in2="hardAlpha" operator="out"/>
<feColorMatrix type="matrix" values="0 0 0 0 0 0 0 0 0 0 0 0 0 0 0 0 0 0 0.25 0"/>
<feBlend mode="normal" in2="BackgroundImageFix" result="effect1_dropShadow_215_15"/>
<feBlend mode="normal" in="SourceGraphic" in2="effect1_dropShadow_215_15" result="shape"/>
</filter>
<filter id="filter2_d_215_15" x="8.01367" y="168.955" width="518.059" height="214.543" filterUnits="userSpaceOnUse" color-interpolation-filters="sRGB">
<feFlood flood-opacity="0" result="BackgroundImageFix"/>
<feColorMatrix in="SourceAlpha" type="matrix" values="0 0 0 0 0 0 0 0 0 0 0 0 0 0 0 0 0 0 127 0" result="hardAlpha"/>
<feOffset dy="4"/>
<feGaussianBlur stdDeviation="2"/>
<feComposite in2="hardAlpha" operator="out"/>
<feColorMatrix type="matrix" values="0 0 0 0 0 0 0 0 0 0 0 0 0 0 0 0 0 0 0.25 0"/>
<feBlend mode="normal" in2="BackgroundImageFix" result="effect1_dropShadow_215_15"/>
<feBlend mode="normal" in="SourceGraphic" in2="effect1_dropShadow_215_15" result="shape"/>
</filter>
</defs>
</svg>
