<svg width="315" height="322" viewBox="0 0 315 322" fill="none" xmlns="http://www.w3.org/2000/svg">
<path d="M271.819 258.808L227.194 213.325C241.592 194.575 249.404 171.42 249.375 147.583C249.375 126.355 243.217 105.603 231.679 87.9522C220.142 70.3013 203.743 56.5441 184.557 48.4203C165.371 40.2965 144.259 38.1709 123.891 42.3124C103.523 46.4539 84.8133 56.6764 70.1288 71.6873C55.4443 86.6981 45.444 105.823 41.3926 126.644C37.3411 147.464 39.4205 169.045 47.3677 188.658C55.3149 208.271 68.773 225.034 86.0402 236.828C103.307 248.622 123.608 254.917 144.375 254.917C167.694 254.946 190.345 246.96 208.688 232.243L253.181 277.859C254.401 279.117 255.853 280.115 257.452 280.796C259.052 281.477 260.767 281.828 262.5 281.828C264.233 281.828 265.948 281.477 267.548 280.796C269.147 280.115 270.599 279.117 271.819 277.859C273.049 276.612 274.025 275.128 274.692 273.493C275.358 271.858 275.701 270.105 275.701 268.333C275.701 266.562 275.358 264.809 274.692 263.174C274.025 261.539 273.049 260.055 271.819 258.808V258.808ZM65.625 147.583C65.625 131.662 70.2437 116.098 78.8968 102.86C87.55 89.6218 99.849 79.3039 114.239 73.2111C128.628 67.1182 144.462 65.5241 159.738 68.6302C175.014 71.7363 189.046 79.4032 200.06 90.6613C211.073 101.919 218.573 116.263 221.612 131.879C224.65 147.494 223.091 163.68 217.131 178.389C211.17 193.099 201.077 205.671 188.126 214.517C175.176 223.362 159.95 228.083 144.375 228.083C123.489 228.083 103.459 219.602 88.6904 204.505C73.9219 189.409 65.625 168.933 65.625 147.583Z" fill="black"/>
</svg>
