<svg width="237" height="242" viewBox="0 0 237 242" fill="none" xmlns="http://www.w3.org/2000/svg">
<path d="M232.819 218.808L188.194 173.325C202.592 154.575 210.404 131.42 210.375 107.583C210.375 86.3549 204.217 65.6031 192.679 47.9522C181.142 30.3013 164.743 16.5441 145.557 8.42031C126.371 0.296506 105.259 -1.82905 84.8906 2.31243C64.5226 6.45391 45.8133 16.6764 31.1288 31.6873C16.4443 46.6981 6.44404 65.8231 2.39259 86.6437C-1.65886 107.464 0.420495 129.045 8.3677 148.658C16.3149 168.271 29.773 185.034 47.0402 196.828C64.3073 208.622 84.608 214.917 105.375 214.917C128.694 214.946 151.345 206.96 169.688 192.243L214.181 237.859C215.401 239.117 216.853 240.115 218.452 240.796C220.052 241.477 221.767 241.828 223.5 241.828C225.233 241.828 226.948 241.477 228.548 240.796C230.147 240.115 231.599 239.117 232.819 237.859C234.049 236.612 235.025 235.128 235.692 233.493C236.358 231.858 236.701 230.105 236.701 228.333C236.701 226.562 236.358 224.809 235.692 223.174C235.025 221.539 234.049 220.055 232.819 218.808V218.808ZM26.625 107.583C26.625 91.662 31.2437 76.0981 39.8968 62.86C48.55 49.6218 60.849 39.3039 75.2387 33.2111C89.6284 27.1182 105.462 25.5241 120.738 28.6302C136.014 31.7363 150.046 39.4032 161.06 50.6613C172.073 61.9194 179.573 76.2631 182.612 91.8786C185.65 107.494 184.091 123.68 178.131 138.389C172.17 153.099 162.077 165.671 149.126 174.517C136.176 183.362 120.95 188.083 105.375 188.083C84.4893 188.083 64.4589 179.602 49.6904 164.505C34.9219 149.409 26.625 128.933 26.625 107.583Z" fill="white"/>
</svg>
